<svg xmlns="http://www.w3.org/2000/svg" xmlns:xlink="http://www.w3.org/1999/xlink" width="40" zoomAndPan="magnify" viewBox="0 0 30 30.000001" height="40" preserveAspectRatio="xMidYMid meet" version="1.0"><defs><clipPath id="ba425f1ce9"><path d="M 0.484375 0 L 19 0 L 19 29.03125 L 0.484375 29.03125 Z M 0.484375 0 " clip-rule="nonzero"/></clipPath><clipPath id="e2e2ba49da"><path d="M 14 0 L 28.066406 0 L 28.066406 29 L 14 29 Z M 14 0 " clip-rule="nonzero"/></clipPath></defs><g clip-path="url(#ba425f1ce9)"><path fill="#29abe2" d="M 17.816406 21.925781 C 17.816406 21.925781 16.472656 20.082031 15.367188 20.351562 C 14.625 20.53125 13.738281 21.027344 13.085938 21.980469 C 12.503906 22.816406 12.039062 23.695312 11.71875 24.660156 C 11.402344 25.617188 11.125 26.589844 10.820312 27.554688 C 10.730469 27.839844 10.613281 28.128906 10.496094 28.402344 C 10.386719 28.648438 10.234375 28.871094 9.996094 29.027344 L 9.429688 29.03125 C 9.429688 29.027344 9.429688 29.019531 9.429688 29.015625 C 9.265625 28.960938 9.089844 28.914062 8.925781 28.839844 C 8.289062 28.578125 7.773438 28.140625 7.304688 27.648438 C 6.375 26.691406 5.644531 25.585938 4.996094 24.425781 C 3.113281 21.058594 1.828125 17.46875 1.019531 13.699219 C 0.707031 12.222656 0.484375 10.730469 0.515625 9.21875 C 0.550781 7.21875 1.027344 5.332031 2.113281 3.636719 C 3.253906 1.847656 4.859375 0.722656 6.957031 0.339844 C 8.867188 0 10.660156 0.328125 12.335938 1.273438 C 13.1875 1.753906 14 2.285156 14.828125 2.800781 C 15.570312 3.261719 16.320312 3.714844 17.144531 4.019531 C 17.6875 4.222656 18.246094 4.367188 18.820312 4.398438 C 18.863281 4.398438 18.902344 4.414062 18.945312 4.421875 C 18.945312 4.4375 18.953125 4.449219 18.953125 4.46875 C 18.570312 4.558594 18.195312 4.671875 17.816406 4.738281 C 16.542969 4.960938 15.324219 4.71875 14.148438 4.246094 C 13.269531 3.894531 12.40625 3.5 11.535156 3.140625 C 10.808594 2.839844 10.058594 2.601562 9.269531 2.542969 C 7.832031 2.433594 6.476562 2.675781 5.335938 3.648438 C 4.617188 4.265625 4.152344 5.0625 3.851562 5.953125 C 3.445312 7.144531 3.332031 8.382812 3.398438 9.632812 C 3.441406 10.386719 3.503906 11.132812 3.59375 11.882812 C 3.765625 13.257812 4.046875 14.613281 4.390625 15.953125 C 4.8125 17.59375 5.328125 19.203125 6.03125 20.746094 C 6.40625 21.578125 6.828125 22.386719 7.410156 23.105469 C 7.640625 23.386719 7.890625 23.648438 8.210938 23.832031 C 8.265625 23.863281 8.320312 23.894531 8.371094 23.917969 C 8.804688 24.109375 9.019531 24.0625 9.265625 23.660156 C 9.566406 23.167969 9.839844 22.65625 10.125 22.152344 C 10.625 21.273438 11.195312 20.449219 11.949219 19.765625 C 12.878906 18.929688 13.960938 18.429688 15.203125 18.277344 C 17.691406 18.113281 17.816406 21.925781 17.816406 21.925781 Z M 17.816406 21.925781 " fill-opacity="1" fill-rule="nonzero"/></g><g clip-path="url(#e2e2ba49da)"><path fill="#0071bc" d="M 28.003906 9.1875 C 27.945312 10.414062 27.730469 11.628906 27.457031 12.824219 C 27.207031 13.949219 26.890625 15.0625 26.542969 16.160156 C 26.554688 16.160156 26.433594 16.566406 26.339844 16.773438 C 26.308594 16.863281 26.28125 16.960938 26.242188 17.050781 C 26.226562 17.097656 26.214844 17.144531 26.191406 17.21875 C 26.183594 17.21875 25.132812 21.058594 21.488281 26.585938 C 21.042969 27.253906 20.472656 27.828125 19.808594 28.289062 C 19.570312 28.457031 19.308594 28.601562 19.039062 28.710938 C 18.417969 28.964844 17.863281 28.828125 17.394531 28.351562 C 16.992188 27.9375 16.6875 27.445312 16.457031 26.921875 C 16.039062 25.96875 15.648438 25 15.242188 24.042969 C 15.039062 23.5625 14.839844 23.085938 14.523438 22.667969 C 14.476562 22.605469 14.421875 22.546875 14.363281 22.46875 C 14.863281 22.398438 15.300781 22.503906 15.6875 22.8125 C 16.039062 23.078125 16.289062 23.433594 16.507812 23.808594 C 16.78125 24.269531 17.042969 24.742188 17.328125 25.203125 C 17.484375 25.453125 17.679688 25.675781 17.941406 25.824219 C 18.320312 26.046875 18.589844 26.027344 18.914062 25.734375 C 19.390625 25.3125 19.734375 24.777344 20.082031 24.246094 C 22.328125 20.8125 23.847656 16.027344 23.871094 16.007812 C 24.46875 14.230469 24.949219 12.417969 25.234375 10.566406 C 25.40625 9.441406 25.488281 8.304688 25.449219 7.160156 C 25.410156 6.222656 25.316406 5.289062 24.964844 4.402344 C 24.628906 3.519531 24.042969 2.882812 23.09375 2.644531 C 22.304688 2.445312 21.53125 2.53125 20.757812 2.746094 C 20.144531 2.917969 19.535156 3.085938 18.914062 3.210938 C 17.636719 3.464844 16.460938 3.164062 15.386719 2.453125 C 15.027344 2.21875 14.703125 1.945312 14.355469 1.691406 C 14.363281 1.679688 14.371094 1.675781 14.375 1.664062 C 14.648438 1.699219 14.929688 1.734375 15.203125 1.757812 C 15.984375 1.835938 16.757812 1.746094 17.523438 1.589844 C 18.535156 1.386719 19.511719 1.035156 20.492188 0.722656 C 21.152344 0.515625 21.808594 0.316406 22.5 0.246094 C 24.367188 0.0429688 26.011719 0.699219 26.964844 2.574219 C 27.398438 3.429688 27.640625 4.335938 27.789062 5.277344 C 28.007812 6.574219 28.0625 7.882812 28.003906 9.1875 Z M 28.003906 9.1875 " fill-opacity="1" fill-rule="nonzero"/></g></svg>