<svg xmlns="http://www.w3.org/2000/svg" xmlns:xlink="http://www.w3.org/1999/xlink" width="236" zoomAndPan="magnify" viewBox="0 0 177 30.000001" height="40" preserveAspectRatio="xMidYMid meet" version="1.0"><defs><g/><clipPath id="6c7e06d794"><path d="M 2.855469 0 L 174.144531 0 L 174.144531 29.03125 L 2.855469 29.03125 Z M 2.855469 0 " clip-rule="nonzero"/></clipPath><clipPath id="7746fd159a"><path d="M 7.730469 1 L 24 1 L 24 25.671875 L 7.730469 25.671875 Z M 7.730469 1 " clip-rule="nonzero"/></clipPath><clipPath id="d5c02c51db"><path d="M 19 1 L 30.957031 1 L 30.957031 25.671875 L 19 25.671875 Z M 19 1 " clip-rule="nonzero"/></clipPath><clipPath id="8c3b64c14e"><path d="M 22.171875 5.101562 L 34.511719 5.101562 L 34.511719 18.164062 L 22.171875 18.164062 Z M 22.171875 5.101562 " clip-rule="nonzero"/></clipPath></defs><g clip-path="url(#6c7e06d794)"><path fill="#ffffff" d="M 2.855469 0 L 174.144531 0 L 174.144531 36.289062 L 2.855469 36.289062 Z M 2.855469 0 " fill-opacity="1" fill-rule="nonzero"/><path fill="#ffffff" d="M 2.855469 0 L 174.144531 0 L 174.144531 29.03125 L 2.855469 29.03125 Z M 2.855469 0 " fill-opacity="1" fill-rule="nonzero"/><path fill="#ffffff" d="M 2.855469 0 L 174.144531 0 L 174.144531 29.03125 L 2.855469 29.03125 Z M 2.855469 0 " fill-opacity="1" fill-rule="nonzero"/></g><g clip-path="url(#7746fd159a)"><path fill="#29abe2" d="M 22.328125 19.628906 C 22.328125 19.628906 21.195312 18.0625 20.265625 18.292969 C 19.640625 18.445312 18.894531 18.867188 18.34375 19.675781 C 17.855469 20.386719 17.464844 21.132812 17.191406 21.953125 C 16.929688 22.765625 16.691406 23.59375 16.4375 24.414062 C 16.363281 24.660156 16.261719 24.902344 16.164062 25.136719 C 16.070312 25.34375 15.941406 25.53125 15.742188 25.664062 L 15.265625 25.671875 C 15.265625 25.664062 15.265625 25.660156 15.265625 25.65625 C 15.125 25.609375 14.980469 25.570312 14.839844 25.507812 C 14.304688 25.285156 13.871094 24.914062 13.476562 24.496094 C 12.695312 23.683594 12.078125 22.742188 11.53125 21.753906 C 9.945312 18.890625 8.867188 15.839844 8.183594 12.636719 C 7.917969 11.382812 7.734375 10.113281 7.757812 8.828125 C 7.789062 7.128906 8.191406 5.523438 9.105469 4.085938 C 10.066406 2.5625 11.417969 1.609375 13.183594 1.28125 C 14.789062 0.992188 16.300781 1.273438 17.714844 2.074219 C 18.429688 2.484375 19.113281 2.933594 19.808594 3.371094 C 20.4375 3.765625 21.066406 4.152344 21.761719 4.410156 C 22.21875 4.582031 22.6875 4.703125 23.171875 4.730469 C 23.207031 4.730469 23.242188 4.746094 23.277344 4.75 C 23.277344 4.765625 23.285156 4.777344 23.285156 4.792969 C 22.964844 4.867188 22.648438 4.964844 22.328125 5.019531 C 21.257812 5.207031 20.230469 5.003906 19.238281 4.601562 C 18.5 4.304688 17.773438 3.96875 17.039062 3.664062 C 16.425781 3.40625 15.796875 3.203125 15.132812 3.152344 C 13.921875 3.0625 12.777344 3.265625 11.816406 4.09375 C 11.210938 4.617188 10.820312 5.292969 10.566406 6.050781 C 10.226562 7.0625 10.132812 8.117188 10.1875 9.179688 C 10.222656 9.820312 10.277344 10.457031 10.351562 11.089844 C 10.496094 12.261719 10.730469 13.414062 11.023438 14.554688 C 11.378906 15.949219 11.8125 17.316406 12.402344 18.628906 C 12.71875 19.335938 13.074219 20.019531 13.566406 20.632812 C 13.761719 20.871094 13.96875 21.09375 14.242188 21.25 C 14.285156 21.277344 14.332031 21.300781 14.375 21.324219 C 14.742188 21.484375 14.921875 21.445312 15.125 21.105469 C 15.382812 20.6875 15.613281 20.25 15.851562 19.824219 C 16.273438 19.074219 16.753906 18.375 17.386719 17.792969 C 18.167969 17.082031 19.078125 16.660156 20.125 16.527344 C 22.222656 16.390625 22.328125 19.628906 22.328125 19.628906 Z M 22.328125 19.628906 " fill-opacity="1" fill-rule="nonzero"/></g><g clip-path="url(#d5c02c51db)"><path fill="#0071bc" d="M 30.90625 8.804688 C 30.855469 9.847656 30.675781 10.878906 30.445312 11.894531 C 30.234375 12.851562 29.96875 13.796875 29.675781 14.726562 C 29.683594 14.726562 29.585938 15.074219 29.503906 15.25 C 29.480469 15.328125 29.453125 15.410156 29.425781 15.484375 C 29.410156 15.527344 29.398438 15.566406 29.378906 15.628906 C 29.375 15.628906 28.488281 18.890625 25.421875 23.589844 C 25.046875 24.160156 24.566406 24.648438 24.003906 25.039062 C 23.804688 25.183594 23.582031 25.304688 23.359375 25.394531 C 22.832031 25.613281 22.367188 25.496094 21.972656 25.089844 C 21.632812 24.738281 21.375 24.324219 21.183594 23.875 C 20.832031 23.066406 20.5 22.242188 20.160156 21.429688 C 19.992188 21.023438 19.820312 20.617188 19.554688 20.257812 C 19.515625 20.207031 19.46875 20.15625 19.421875 20.09375 C 19.839844 20.03125 20.210938 20.121094 20.535156 20.382812 C 20.832031 20.609375 21.042969 20.910156 21.226562 21.230469 C 21.457031 21.621094 21.675781 22.023438 21.917969 22.414062 C 22.046875 22.628906 22.210938 22.816406 22.433594 22.945312 C 22.753906 23.132812 22.976562 23.117188 23.253906 22.867188 C 23.652344 22.507812 23.945312 22.054688 24.234375 21.601562 C 26.125 18.683594 27.40625 14.617188 27.425781 14.601562 C 27.929688 13.089844 28.332031 11.550781 28.574219 9.972656 C 28.71875 9.015625 28.789062 8.050781 28.753906 7.078125 C 28.722656 6.28125 28.644531 5.488281 28.347656 4.734375 C 28.0625 3.984375 27.574219 3.445312 26.773438 3.242188 C 26.105469 3.074219 25.457031 3.144531 24.804688 3.328125 C 24.289062 3.472656 23.773438 3.617188 23.253906 3.722656 C 22.175781 3.9375 21.1875 3.683594 20.28125 3.078125 C 19.980469 2.878906 19.707031 2.644531 19.414062 2.433594 C 19.421875 2.421875 19.425781 2.417969 19.429688 2.40625 C 19.660156 2.4375 19.894531 2.46875 20.125 2.488281 C 20.785156 2.554688 21.4375 2.476562 22.082031 2.34375 C 22.933594 2.171875 23.753906 1.871094 24.578125 1.609375 C 25.136719 1.429688 25.691406 1.261719 26.269531 1.203125 C 27.84375 1.027344 29.230469 1.585938 30.03125 3.179688 C 30.394531 3.90625 30.601562 4.679688 30.726562 5.476562 C 30.910156 6.582031 30.957031 7.695312 30.90625 8.804688 Z M 30.90625 8.804688 " fill-opacity="1" fill-rule="nonzero"/></g><g clip-path="url(#8c3b64c14e)"><path fill="#ffffff" d="M 22.171875 5.101562 L 34.511719 5.101562 L 34.511719 18.164062 L 22.171875 18.164062 L 22.171875 5.101562 " fill-opacity="1" fill-rule="nonzero"/></g><g fill="#737373" fill-opacity="1"><g transform="translate(24.222881, 15.524346)"><g><path d="M 4.269531 -8.949219 L 1.089844 -8.949219 L 1.089844 0 L 4.269531 0 C 7.171875 0 8.632812 -2.207031 8.632812 -4.421875 C 8.632812 -6.640625 7.171875 -8.949219 4.269531 -8.949219 Z M 4.269531 -1.28125 L 2.371094 -1.28125 L 2.371094 -7.667969 L 4.269531 -7.667969 C 6.324219 -7.667969 7.363281 -5.996094 7.363281 -4.421875 C 7.363281 -2.851562 6.324219 -1.28125 4.269531 -1.28125 Z M 4.269531 -1.28125 "/></g></g></g><g fill="#737373" fill-opacity="1"><g transform="translate(33.525812, 15.524346)"><g><path d="M 2.179688 -6.007812 L 2.179688 -6.84375 L 0.949219 -6.84375 L 0.949219 0 L 2.179688 0 L 2.179688 -3.714844 C 2.179688 -4.96875 3.144531 -5.894531 4.296875 -5.894531 C 4.5 -5.894531 4.714844 -5.867188 4.929688 -5.804688 L 4.929688 -6.894531 C 4.652344 -6.957031 4.386719 -6.996094 4.117188 -6.996094 C 3.359375 -6.996094 2.675781 -6.691406 2.179688 -6.007812 Z M 2.179688 -6.007812 "/></g></g></g><g fill="#737373" fill-opacity="1"><g transform="translate(38.963089, 15.524346)"><g><path d="M 1.265625 -1.519531 C 0.847656 -1.519531 0.507812 -1.203125 0.507812 -0.734375 C 0.507812 -0.355469 0.847656 0.0390625 1.265625 0.0390625 C 1.738281 0.0390625 2.066406 -0.355469 2.066406 -0.734375 C 2.066406 -1.203125 1.738281 -1.519531 1.265625 -1.519531 Z M 1.265625 -1.519531 "/></g></g></g><g fill="#737373" fill-opacity="1"><g transform="translate(41.726078, 15.524346)"><g/></g></g><g fill="#737373" fill-opacity="1"><g transform="translate(44.996047, 15.524346)"><g><path d="M 2.191406 -2.242188 L 5.792969 -2.242188 L 6.640625 0 L 8.011719 0 L 4.449219 -8.984375 L 3.511719 -8.984375 L -0.0507812 0 L 1.332031 0 Z M 5.324219 -3.449219 L 2.660156 -3.449219 L 3.992188 -6.945312 Z M 5.324219 -3.449219 "/></g></g></g><g fill="#737373" fill-opacity="1"><g transform="translate(53.145614, 15.524346)"><g><path d="M 7.691406 -8.871094 L 6.453125 -8.871094 L 6.453125 -5.96875 C 5.855469 -6.78125 4.992188 -6.972656 4.144531 -6.972656 C 1.824219 -6.972656 0.507812 -5.425781 0.507812 -3.460938 C 0.507812 -1.417969 1.761719 0.113281 4.15625 0.113281 C 5.019531 0.101562 5.957031 -0.175781 6.453125 -0.925781 L 6.453125 0 L 7.691406 0 Z M 6.453125 -3.433594 C 6.453125 -1.785156 5.296875 -0.988281 4.132812 -0.988281 C 2.625 -0.988281 1.75 -2.027344 1.75 -3.433594 C 1.75 -4.664062 2.625 -5.878906 4.144531 -5.878906 C 5.296875 -5.878906 6.453125 -5.070312 6.453125 -3.433594 Z M 6.453125 -3.433594 "/></g></g></g><g fill="#737373" fill-opacity="1"><g transform="translate(61.928898, 15.524346)"><g><path d="M 2.179688 -6.007812 L 2.179688 -6.84375 L 0.949219 -6.84375 L 0.949219 0 L 2.179688 0 L 2.179688 -3.714844 C 2.179688 -4.96875 3.144531 -5.894531 4.296875 -5.894531 C 4.5 -5.894531 4.714844 -5.867188 4.929688 -5.804688 L 4.929688 -6.894531 C 4.652344 -6.957031 4.386719 -6.996094 4.117188 -6.996094 C 3.359375 -6.996094 2.675781 -6.691406 2.179688 -6.007812 Z M 2.179688 -6.007812 "/></g></g></g><g fill="#737373" fill-opacity="1"><g transform="translate(67.366173, 15.524346)"><g><path d="M 7.679688 -3.726562 C 7.542969 -5.878906 5.867188 -6.957031 4.167969 -6.957031 C 2.355469 -6.957031 0.609375 -5.78125 0.609375 -3.421875 C 0.609375 -1.066406 2.382812 0.125 4.144531 0.125 C 5.550781 0.125 6.957031 -0.621094 7.476562 -2.117188 L 6.199219 -2.117188 C 5.792969 -1.34375 5.007812 -0.976562 4.15625 -0.976562 C 3.128906 -0.976562 1.851562 -1.785156 1.851562 -3.128906 L 7.65625 -3.128906 C 7.679688 -3.246094 7.691406 -3.371094 7.691406 -3.511719 C 7.691406 -3.585938 7.691406 -3.648438 7.679688 -3.726562 Z M 6.375 -4.15625 L 1.902344 -4.15625 C 2.15625 -5.375 3.167969 -5.867188 4.167969 -5.867188 C 5.160156 -5.867188 6.132812 -5.386719 6.375 -4.15625 Z M 6.375 -4.15625 "/></g></g></g><g fill="#737373" fill-opacity="1"><g transform="translate(75.845284, 15.524346)"><g><path d="M 8.074219 0 L 8.074219 -6.855469 L 6.832031 -6.855469 L 6.84375 -5.945312 C 6.234375 -6.769531 5.210938 -6.972656 4.359375 -6.972656 C 2.039062 -6.972656 0.695312 -5.308594 0.695312 -3.460938 C 0.695312 -1.570312 1.988281 0.113281 4.386719 0.113281 C 5.234375 0.101562 6.335938 -0.175781 6.832031 -0.925781 L 6.832031 0 Z M 6.832031 -3.433594 C 6.832031 -1.785156 5.5 -0.988281 4.359375 -0.988281 C 2.839844 -0.988281 1.9375 -2.167969 1.9375 -3.460938 C 1.9375 -4.816406 2.851562 -5.878906 4.359375 -5.878906 C 5.527344 -5.878906 6.832031 -5.070312 6.832031 -3.433594 Z M 6.832031 -3.433594 "/></g></g></g><g fill="#737373" fill-opacity="1"><g transform="translate(84.856709, 15.524346)"><g><path d="M 2.191406 -6.007812 L 2.191406 -6.855469 L 0.949219 -6.855469 L 0.949219 0 L 2.191406 0 L 2.191406 -3.726562 C 2.191406 -4.917969 2.902344 -5.855469 4.207031 -5.855469 C 5.703125 -5.855469 6.046875 -4.96875 6.046875 -3.675781 L 6.046875 0 L 7.273438 0 L 7.273438 -3.6875 C 7.273438 -5.652344 6.386719 -6.957031 4.296875 -6.957031 C 3.433594 -6.957031 2.699219 -6.742188 2.191406 -6.007812 Z M 2.191406 -6.007812 "/></g></g></g><g fill="#737373" fill-opacity="1"><g transform="translate(93.183732, 15.524346)"><g/></g></g><g fill="#737373" fill-opacity="1"><g transform="translate(96.453703, 15.524346)"><g><path d="M 2.191406 -2.242188 L 5.792969 -2.242188 L 6.640625 0 L 8.011719 0 L 4.449219 -8.984375 L 3.511719 -8.984375 L -0.0507812 0 L 1.332031 0 Z M 5.324219 -3.449219 L 2.660156 -3.449219 L 3.992188 -6.945312 Z M 5.324219 -3.449219 "/></g></g></g><g fill="#737373" fill-opacity="1"><g transform="translate(104.603272, 15.524346)"><g><path d="M 6.007812 -0.898438 L 6.007812 0 L 7.1875 0 L 7.1875 -6.921875 L 5.945312 -6.921875 L 5.945312 -3.128906 C 5.945312 -1.925781 5.234375 -1 3.929688 -1 C 2.433594 -1 2.105469 -1.886719 2.105469 -3.167969 L 2.105469 -6.921875 L 0.863281 -6.921875 L 0.863281 -3.167969 C 0.863281 -1.203125 1.761719 0.101562 3.839844 0.101562 C 4.726562 0.101562 5.5 -0.152344 6.007812 -0.898438 Z M 6.007812 -0.898438 "/></g></g></g><g fill="#737373" fill-opacity="1"><g transform="translate(112.879594, 15.524346)"><g><path d="M 7.820312 -0.253906 L 7.820312 -6.855469 L 6.589844 -6.855469 L 6.589844 -5.945312 C 6.082031 -6.691406 5.121094 -6.972656 4.269531 -6.972656 C 1.886719 -6.972656 0.632812 -5.285156 0.632812 -3.410156 C 0.632812 -1.546875 1.964844 -0.0117188 4.269531 -0.0117188 C 5.121094 -0.0117188 5.980469 -0.191406 6.578125 -0.976562 L 6.578125 -0.253906 C 6.578125 1.089844 5.335938 1.597656 4.21875 1.597656 C 3.332031 1.597656 2.191406 1.316406 2.191406 0.457031 L 0.964844 0.457031 C 0.964844 2.015625 2.574219 2.699219 4.296875 2.699219 C 5.996094 2.699219 7.820312 1.875 7.820312 -0.253906 Z M 4.257812 -1.101562 C 2.75 -1.101562 1.886719 -2.207031 1.875 -3.410156 C 1.875 -4.640625 2.75 -5.878906 4.285156 -5.878906 C 5.804688 -5.878906 6.578125 -4.839844 6.578125 -3.597656 C 6.578125 -2.332031 5.804688 -1.101562 4.257812 -1.101562 Z M 4.257812 -1.101562 "/></g></g></g><g fill="#737373" fill-opacity="1"><g transform="translate(121.789633, 15.524346)"><g><path d="M 6.007812 -0.898438 L 6.007812 0 L 7.1875 0 L 7.1875 -6.921875 L 5.945312 -6.921875 L 5.945312 -3.128906 C 5.945312 -1.925781 5.234375 -1 3.929688 -1 C 2.433594 -1 2.105469 -1.886719 2.105469 -3.167969 L 2.105469 -6.921875 L 0.863281 -6.921875 L 0.863281 -3.167969 C 0.863281 -1.203125 1.761719 0.101562 3.839844 0.101562 C 4.726562 0.101562 5.5 -0.152344 6.007812 -0.898438 Z M 6.007812 -0.898438 "/></g></g></g><g fill="#737373" fill-opacity="1"><g transform="translate(130.065955, 15.524346)"><g><path d="M 1.8125 -4.878906 C 1.8125 -5.589844 2.523438 -5.878906 3.28125 -5.878906 C 4.03125 -5.878906 4.675781 -5.589844 4.738281 -4.980469 L 5.96875 -4.980469 C 5.878906 -6.414062 4.675781 -6.996094 3.320312 -6.996094 C 1.988281 -6.996094 0.582031 -6.4375 0.582031 -4.855469 C 0.582031 -3.320312 2.039062 -2.941406 3.269531 -2.890625 C 3.867188 -2.863281 4.929688 -2.738281 4.929688 -1.976562 C 4.929688 -1.167969 3.953125 -0.964844 3.332031 -0.964844 C 2.484375 -0.964844 1.773438 -1.34375 1.722656 -2.105469 L 0.480469 -2.105469 C 0.570312 -0.480469 1.886719 0.113281 3.308594 0.113281 C 4.601562 0.113281 6.171875 -0.355469 6.171875 -1.953125 C 6.171875 -3.511719 4.703125 -3.917969 3.410156 -4.003906 C 2.800781 -4.042969 1.8125 -4.019531 1.8125 -4.878906 Z M 1.8125 -4.878906 "/></g></g></g><g fill="#737373" fill-opacity="1"><g transform="translate(136.783335, 15.524346)"><g><path d="M 2.574219 -6.855469 L 2.574219 -8.378906 L 1.332031 -8.136719 L 1.332031 -6.855469 L 0.304688 -6.855469 L 0.304688 -5.867188 L 1.332031 -5.867188 L 1.332031 -2.015625 C 1.332031 -0.417969 2.207031 0.0390625 3.546875 0.0390625 C 3.726562 0.0390625 3.917969 0.0234375 4.117188 0.0117188 L 4.117188 -1.027344 C 3.929688 -1.015625 3.75 -1 3.597656 -1 C 2.976562 -1 2.574219 -1.191406 2.574219 -2.003906 L 2.574219 -5.867188 L 4.082031 -5.867188 L 4.082031 -6.855469 Z M 2.574219 -6.855469 "/></g></g></g><g fill="#737373" fill-opacity="1"><g transform="translate(141.257372, 15.524346)"><g><path d="M 8.046875 -3.421875 C 8.046875 -5.78125 6.222656 -6.972656 4.371094 -6.972656 C 2.507812 -6.972656 0.660156 -5.792969 0.660156 -3.421875 C 0.660156 -1.066406 2.496094 0.125 4.335938 0.125 C 6.199219 0.125 8.046875 -1.050781 8.046875 -3.421875 Z M 1.902344 -3.421875 C 1.902344 -5.058594 3.128906 -5.867188 4.371094 -5.867188 C 5.589844 -5.867188 6.820312 -5.042969 6.820312 -3.421875 C 6.820312 -1.8125 5.589844 -0.988281 4.359375 -0.988281 C 3.128906 -0.988281 1.902344 -1.800781 1.902344 -3.421875 Z M 1.902344 -3.421875 "/></g></g></g><g fill="#737373" fill-opacity="1"><g transform="translate(52.071824, 23.949571)"><g><path d="M 0.242188 -2.148438 C 0.242188 -1.546875 0.5 -1 0.871094 -0.605469 C 1.246094 -0.210938 1.789062 0.03125 2.375 0.03125 C 3.378906 0.03125 4.171875 -0.636719 4.417969 -1.617188 L 3.804688 -1.617188 C 3.585938 -0.960938 3.027344 -0.585938 2.375 -0.585938 C 1.960938 -0.585938 1.546875 -0.757812 1.277344 -1.042969 C 1.003906 -1.328125 0.84375 -1.714844 0.84375 -2.148438 C 0.84375 -2.589844 1.011719 -2.972656 1.285156 -3.257812 C 1.554688 -3.542969 1.960938 -3.738281 2.375 -3.738281 C 3.011719 -3.738281 3.542969 -3.394531 3.769531 -2.746094 L 4.386719 -2.746094 C 4.140625 -3.71875 3.363281 -4.355469 2.375 -4.355469 C 1.789062 -4.355469 1.226562 -4.085938 0.851562 -3.695312 C 0.480469 -3.300781 0.242188 -2.757812 0.242188 -2.148438 Z M 0.242188 -2.148438 "/></g></g></g><g fill="#737373" fill-opacity="1"><g transform="translate(57.223256, 23.949571)"><g><path d="M 0.425781 -4.195312 C 0.425781 -3.960938 0.617188 -3.84375 0.800781 -3.84375 C 0.992188 -3.84375 1.179688 -3.960938 1.179688 -4.195312 C 1.179688 -4.429688 0.992188 -4.539062 0.808594 -4.539062 C 0.617188 -4.539062 0.425781 -4.421875 0.425781 -4.195312 Z M 0.5 -3.375 L 1.105469 -3.375 L 1.105469 0 L 0.5 0 Z M 0.5 -3.375 "/></g></g></g><g fill="#737373" fill-opacity="1"><g transform="translate(59.382538, 23.949571)"><g><path d="M 1.0625 -2.925781 L 1.0625 -3.332031 L 0.460938 -3.332031 L 0.460938 0 L 1.0625 0 L 1.0625 -1.808594 C 1.0625 -2.417969 1.53125 -2.867188 2.089844 -2.867188 C 2.191406 -2.867188 2.296875 -2.855469 2.398438 -2.824219 L 2.398438 -3.355469 C 2.265625 -3.386719 2.132812 -3.40625 2.003906 -3.40625 C 1.636719 -3.40625 1.300781 -3.257812 1.0625 -2.925781 Z M 1.0625 -2.925781 "/></g></g></g><g fill="#737373" fill-opacity="1"><g transform="translate(62.473397, 23.949571)"><g><path d="M 2.925781 -0.4375 L 2.925781 0 L 3.496094 0 L 3.496094 -3.367188 L 2.894531 -3.367188 L 2.894531 -1.523438 C 2.894531 -0.9375 2.546875 -0.488281 1.914062 -0.488281 C 1.183594 -0.488281 1.023438 -0.917969 1.023438 -1.542969 L 1.023438 -3.367188 L 0.417969 -3.367188 L 0.417969 -1.542969 C 0.417969 -0.585938 0.859375 0.0507812 1.871094 0.0507812 C 2.300781 0.0507812 2.675781 -0.0742188 2.925781 -0.4375 Z M 2.925781 -0.4375 "/></g></g></g><g fill="#737373" fill-opacity="1"><g transform="translate(66.946197, 23.949571)"><g><path d="M 1.0625 -2.925781 L 1.0625 -3.332031 L 0.460938 -3.332031 L 0.460938 0 L 1.0625 0 L 1.0625 -1.808594 C 1.0625 -2.417969 1.53125 -2.867188 2.089844 -2.867188 C 2.191406 -2.867188 2.296875 -2.855469 2.398438 -2.824219 L 2.398438 -3.355469 C 2.265625 -3.386719 2.132812 -3.40625 2.003906 -3.40625 C 1.636719 -3.40625 1.300781 -3.257812 1.0625 -2.925781 Z M 1.0625 -2.925781 "/></g></g></g><g fill="#737373" fill-opacity="1"><g transform="translate(70.037056, 23.949571)"><g><path d="M 3.804688 -0.125 L 3.804688 -3.335938 L 3.207031 -3.335938 L 3.207031 -2.894531 C 2.960938 -3.257812 2.492188 -3.394531 2.078125 -3.394531 C 0.917969 -3.394531 0.308594 -2.574219 0.308594 -1.660156 C 0.308594 -0.753906 0.957031 -0.0078125 2.078125 -0.0078125 C 2.492188 -0.0078125 2.910156 -0.09375 3.203125 -0.476562 L 3.203125 -0.125 C 3.203125 0.53125 2.597656 0.777344 2.054688 0.777344 C 1.621094 0.777344 1.066406 0.640625 1.066406 0.222656 L 0.46875 0.222656 C 0.46875 0.980469 1.253906 1.3125 2.089844 1.3125 C 2.917969 1.3125 3.804688 0.914062 3.804688 -0.125 Z M 2.074219 -0.535156 C 1.339844 -0.535156 0.917969 -1.074219 0.914062 -1.660156 C 0.914062 -2.257812 1.339844 -2.863281 2.085938 -2.863281 C 2.824219 -2.863281 3.203125 -2.355469 3.203125 -1.753906 C 3.203125 -1.136719 2.824219 -0.535156 2.074219 -0.535156 Z M 2.074219 -0.535156 "/></g></g></g><g fill="#737373" fill-opacity="1"><g transform="translate(74.818326, 23.949571)"><g><path d="M 0.425781 -4.195312 C 0.425781 -3.960938 0.617188 -3.84375 0.800781 -3.84375 C 0.992188 -3.84375 1.179688 -3.960938 1.179688 -4.195312 C 1.179688 -4.429688 0.992188 -4.539062 0.808594 -4.539062 C 0.617188 -4.539062 0.425781 -4.421875 0.425781 -4.195312 Z M 0.5 -3.375 L 1.105469 -3.375 L 1.105469 0 L 0.5 0 Z M 0.5 -3.375 "/></g></g></g><g fill="#737373" fill-opacity="1"><g transform="translate(76.977609, 23.949571)"><g><path d="M 3.277344 -4.453125 L 2.960938 -4.699219 C 2.863281 -4.558594 2.738281 -4.480469 2.621094 -4.480469 C 2.4375 -4.480469 2.246094 -4.746094 1.941406 -4.746094 C 1.691406 -4.746094 1.429688 -4.597656 1.253906 -4.300781 L 1.597656 -4.066406 C 1.714844 -4.21875 1.855469 -4.273438 1.957031 -4.273438 C 2.179688 -4.273438 2.339844 -4.015625 2.632812 -4.015625 C 2.894531 -4.015625 3.132812 -4.164062 3.277344 -4.453125 Z M 3.832031 0 L 3.832031 -3.335938 L 3.226562 -3.335938 L 3.234375 -2.894531 C 2.9375 -3.292969 2.4375 -3.394531 2.023438 -3.394531 C 0.894531 -3.394531 0.242188 -2.585938 0.242188 -1.683594 C 0.242188 -0.765625 0.871094 0.0546875 2.035156 0.0546875 C 2.449219 0.0507812 2.984375 -0.0859375 3.226562 -0.449219 L 3.226562 0 Z M 3.226562 -1.671875 C 3.226562 -0.871094 2.578125 -0.480469 2.023438 -0.480469 C 1.285156 -0.480469 0.84375 -1.054688 0.84375 -1.683594 C 0.84375 -2.34375 1.289062 -2.863281 2.023438 -2.863281 C 2.589844 -2.863281 3.226562 -2.46875 3.226562 -1.671875 Z M 3.226562 -1.671875 "/></g></g></g><g fill="#737373" fill-opacity="1"><g transform="translate(81.70952, 23.949571)"><g><path d="M 3.917969 -1.664062 C 3.917969 -2.8125 3.027344 -3.394531 2.128906 -3.394531 C 1.222656 -3.394531 0.320312 -2.820312 0.320312 -1.664062 C 0.320312 -0.519531 1.214844 0.0625 2.109375 0.0625 C 3.015625 0.0625 3.917969 -0.511719 3.917969 -1.664062 Z M 0.925781 -1.664062 C 0.925781 -2.460938 1.523438 -2.855469 2.128906 -2.855469 C 2.71875 -2.855469 3.320312 -2.457031 3.320312 -1.664062 C 3.320312 -0.882812 2.71875 -0.480469 2.121094 -0.480469 C 1.523438 -0.480469 0.925781 -0.875 0.925781 -1.664062 Z M 0.925781 -1.664062 "/></g></g></g><g fill="#737373" fill-opacity="1"><g transform="translate(86.49079, 23.949571)"><g/></g></g><g fill="#737373" fill-opacity="1"><g transform="translate(88.526683, 23.949571)"><g><path d="M 1.03125 -1.511719 C 1.417969 -1.511719 1.726562 -1.820312 1.726562 -2.214844 C 1.726562 -2.601562 1.417969 -2.910156 1.03125 -2.910156 C 0.640625 -2.910156 0.332031 -2.601562 0.332031 -2.214844 C 0.332031 -1.820312 0.640625 -1.511719 1.03125 -1.511719 Z M 1.03125 -1.511719 "/></g></g></g><g fill="#737373" fill-opacity="1"><g transform="translate(91.117817, 23.949571)"><g/></g></g><g fill="#737373" fill-opacity="1"><g transform="translate(93.15371, 23.949571)"><g><path d="M 2.078125 -4.355469 L 0.53125 -4.355469 L 0.53125 0 L 2.078125 0 C 3.492188 0 4.203125 -1.074219 4.203125 -2.152344 C 4.203125 -3.234375 3.492188 -4.355469 2.078125 -4.355469 Z M 2.078125 -0.625 L 1.152344 -0.625 L 1.152344 -3.734375 L 2.078125 -3.734375 C 3.078125 -3.734375 3.585938 -2.917969 3.585938 -2.152344 C 3.585938 -1.386719 3.078125 -0.625 2.078125 -0.625 Z M 2.078125 -0.625 "/></g></g></g><g fill="#737373" fill-opacity="1"><g transform="translate(98.126227, 23.949571)"><g><path d="M 3.738281 -1.8125 C 3.671875 -2.863281 2.855469 -3.386719 2.03125 -3.386719 C 1.148438 -3.386719 0.296875 -2.8125 0.296875 -1.664062 C 0.296875 -0.519531 1.160156 0.0625 2.015625 0.0625 C 2.703125 0.0625 3.386719 -0.300781 3.640625 -1.03125 L 3.015625 -1.03125 C 2.820312 -0.652344 2.4375 -0.476562 2.023438 -0.476562 C 1.523438 -0.476562 0.902344 -0.871094 0.902344 -1.523438 L 3.726562 -1.523438 C 3.738281 -1.578125 3.746094 -1.640625 3.746094 -1.707031 C 3.746094 -1.746094 3.746094 -1.777344 3.738281 -1.8125 Z M 3.101562 -2.023438 L 0.925781 -2.023438 C 1.046875 -2.617188 1.542969 -2.855469 2.03125 -2.855469 C 2.511719 -2.855469 2.984375 -2.621094 3.101562 -2.023438 Z M 3.101562 -2.023438 "/></g></g></g><g fill="#737373" fill-opacity="1"><g transform="translate(102.697737, 23.949571)"><g><path d="M 1.066406 -2.925781 L 1.066406 -3.335938 L 0.460938 -3.335938 L 0.460938 0 L 1.066406 0 L 1.066406 -1.8125 C 1.066406 -2.394531 1.414062 -2.851562 2.046875 -2.851562 C 2.777344 -2.851562 2.941406 -2.417969 2.941406 -1.789062 L 2.941406 0 L 3.542969 0 L 3.542969 -1.796875 C 3.542969 -2.75 3.109375 -3.386719 2.089844 -3.386719 C 1.671875 -3.386719 1.3125 -3.28125 1.066406 -2.925781 Z M 1.066406 -2.925781 "/></g></g></g><g fill="#737373" fill-opacity="1"><g transform="translate(107.195217, 23.949571)"><g><path d="M 1.253906 -3.335938 L 1.253906 -4.078125 L 0.648438 -3.960938 L 0.648438 -3.335938 L 0.148438 -3.335938 L 0.148438 -2.855469 L 0.648438 -2.855469 L 0.648438 -0.980469 C 0.648438 -0.203125 1.074219 0.0195312 1.726562 0.0195312 C 1.8125 0.0195312 1.90625 0.0117188 2.003906 0.0078125 L 2.003906 -0.5 C 1.914062 -0.492188 1.824219 -0.488281 1.753906 -0.488281 C 1.449219 -0.488281 1.253906 -0.578125 1.253906 -0.976562 L 1.253906 -2.855469 L 1.988281 -2.855469 L 1.988281 -3.335938 Z M 1.253906 -3.335938 "/></g></g></g><g fill="#737373" fill-opacity="1"><g transform="translate(109.817205, 23.949571)"><g><path d="M 0.425781 -4.195312 C 0.425781 -3.960938 0.617188 -3.84375 0.800781 -3.84375 C 0.992188 -3.84375 1.179688 -3.960938 1.179688 -4.195312 C 1.179688 -4.429688 0.992188 -4.539062 0.808594 -4.539062 C 0.617188 -4.539062 0.425781 -4.421875 0.425781 -4.195312 Z M 0.5 -3.375 L 1.105469 -3.375 L 1.105469 0 L 0.5 0 Z M 0.5 -3.375 "/></g></g></g><g fill="#737373" fill-opacity="1"><g transform="translate(111.976487, 23.949571)"><g><path d="M 0.882812 -2.375 C 0.882812 -2.71875 1.226562 -2.863281 1.597656 -2.863281 C 1.960938 -2.863281 2.277344 -2.71875 2.308594 -2.425781 L 2.90625 -2.425781 C 2.863281 -3.121094 2.277344 -3.40625 1.617188 -3.40625 C 0.96875 -3.40625 0.285156 -3.132812 0.285156 -2.363281 C 0.285156 -1.617188 0.992188 -1.429688 1.589844 -1.40625 C 1.882812 -1.394531 2.398438 -1.332031 2.398438 -0.960938 C 2.398438 -0.566406 1.925781 -0.46875 1.621094 -0.46875 C 1.210938 -0.46875 0.863281 -0.652344 0.839844 -1.023438 L 0.234375 -1.023438 C 0.277344 -0.234375 0.917969 0.0546875 1.609375 0.0546875 C 2.238281 0.0546875 3.003906 -0.171875 3.003906 -0.949219 C 3.003906 -1.707031 2.289062 -1.90625 1.660156 -1.949219 C 1.363281 -1.96875 0.882812 -1.957031 0.882812 -2.375 Z M 0.882812 -2.375 "/></g></g></g><g fill="#737373" fill-opacity="1"><g transform="translate(115.690452, 23.949571)"><g><path d="M 1.253906 -3.335938 L 1.253906 -4.078125 L 0.648438 -3.960938 L 0.648438 -3.335938 L 0.148438 -3.335938 L 0.148438 -2.855469 L 0.648438 -2.855469 L 0.648438 -0.980469 C 0.648438 -0.203125 1.074219 0.0195312 1.726562 0.0195312 C 1.8125 0.0195312 1.90625 0.0117188 2.003906 0.0078125 L 2.003906 -0.5 C 1.914062 -0.492188 1.824219 -0.488281 1.753906 -0.488281 C 1.449219 -0.488281 1.253906 -0.578125 1.253906 -0.976562 L 1.253906 -2.855469 L 1.988281 -2.855469 L 1.988281 -3.335938 Z M 1.253906 -3.335938 "/></g></g></g><g fill="#737373" fill-opacity="1"><g transform="translate(118.31244, 23.949571)"><g><path d="M 3.929688 0 L 3.929688 -3.335938 L 3.324219 -3.335938 L 3.332031 -2.894531 C 3.035156 -3.292969 2.535156 -3.394531 2.121094 -3.394531 C 0.992188 -3.394531 0.339844 -2.585938 0.339844 -1.683594 C 0.339844 -0.765625 0.96875 0.0546875 2.132812 0.0546875 C 2.546875 0.0507812 3.085938 -0.0859375 3.324219 -0.449219 L 3.324219 0 Z M 3.324219 -1.671875 C 3.324219 -0.871094 2.675781 -0.480469 2.121094 -0.480469 C 1.382812 -0.480469 0.945312 -1.054688 0.945312 -1.683594 C 0.945312 -2.34375 1.386719 -2.863281 2.121094 -2.863281 C 2.691406 -2.863281 3.324219 -2.46875 3.324219 -1.671875 Z M 3.324219 -1.671875 "/></g></g></g></svg>